<svg width="532" height="576" viewBox="0 0 532 576" fill="none" xmlns="http://www.w3.org/2000/svg">
<path d="M261 49C319.031 49 371.188 69.0312 406.312 105.062C435.215 108.821 462.48 120.624 485 139.125C445.594 56.3125 363.969 10 261 10C159.438 10 77.25 56.25 37.375 138.812C58.0229 121.96 82.6538 110.694 108.906 106.094C143.375 68.5 197.688 49 261 49Z" fill="url(#paint0_radial_3_2)"/>
<path fill-rule="evenodd" clip-rule="evenodd" d="M401.577 114.531L399.152 112.043C366.213 78.2542 316.804 59 261 59C199.573 59 148.31 77.9148 116.277 112.852L113.98 115.357L110.632 115.944C86.0669 120.248 63.0191 130.79 43.6982 146.56L28.3702 134.464C70.1824 47.8901 156.259 0 261 0C367.139 0 452.689 47.9509 494.03 134.828L478.652 146.852C457.579 129.54 432.067 118.496 405.023 114.979L401.577 114.531ZM474.201 119.056C431.746 48.8666 355.329 10 261 10C168.001 10 91.2481 48.7791 48.3508 118.708C44.4005 125.147 40.7373 131.851 37.375 138.812C43.169 134.083 49.2766 129.794 55.6456 125.969C71.9738 116.162 90.0204 109.403 108.906 106.094C143.375 68.5 197.688 49 261 49C319.031 49 371.188 69.0312 406.313 105.062C427.833 107.861 448.445 115.119 466.867 126.282C473.186 130.111 479.248 134.4 485 139.125C481.694 132.176 478.09 125.485 474.201 119.056Z" fill="white"/>
<path d="M386 385C353.484 385.038 322.24 372.365 298.938 349.688L298.875 349.625C296.182 347.601 293.292 345.853 290.25 344.406C281.091 340.155 271.097 338.009 261 338.125C248.062 338.125 238.219 341.344 231.781 344.406C228.728 345.851 225.828 347.6 223.125 349.625L223.063 349.688C208.369 363.952 190.396 374.388 170.724 380.078C151.052 385.768 130.284 386.538 110.245 382.319C90.2053 378.101 71.5094 369.024 55.8005 355.887C40.0917 342.749 27.8513 325.953 20.1554 306.976C12.4595 287.998 9.54393 267.421 11.665 247.053C13.7862 226.684 20.879 207.149 32.3199 190.165C43.7608 173.18 59.1993 159.267 77.2779 149.648C95.3566 140.029 115.522 134.999 136 135H386C419.152 135 450.946 148.17 474.388 171.612C497.83 195.054 511 226.848 511 260C511 293.152 497.83 324.946 474.388 348.388C450.946 371.83 419.152 385 386 385Z" fill="url(#paint1_radial_3_2)"/>
<path fill-rule="evenodd" clip-rule="evenodd" d="M292.384 357.262C290.377 355.8 288.239 354.527 285.998 353.457C278.205 349.848 269.703 348.025 261.115 348.124L261.058 348.125H261C249.767 348.125 241.384 350.912 236.077 353.436L236.068 353.441L236.059 353.445C233.794 354.517 231.634 355.797 229.607 357.269C213.817 372.467 194.561 383.593 173.503 389.684C152.257 395.829 129.827 396.661 108.185 392.105C86.5423 387.549 66.3507 377.746 49.3852 363.557C32.4197 349.369 19.1999 331.229 10.8884 310.734C2.57683 290.238 -0.571973 268.015 1.71883 246.017C4.00964 224.019 11.6699 202.921 24.0261 184.578C36.3822 166.235 53.0558 151.208 72.5807 140.82C92.1055 130.431 113.884 124.999 136 125C136 125 136 125 136.001 125H386C421.804 125 456.142 139.223 481.459 164.541C506.777 189.858 521 224.196 521 260C521 295.804 506.777 330.142 481.459 355.459C456.145 380.774 421.812 394.997 386.012 395C351.081 395.041 317.511 381.503 292.384 357.262ZM386 385C419.152 385 450.946 371.83 474.388 348.388C497.83 324.946 511 293.152 511 260C511 226.848 497.83 195.054 474.388 171.612C450.946 148.17 419.152 135 386 135H136C115.522 134.999 95.3566 140.029 77.2779 149.648C59.1993 159.267 43.7608 173.18 32.3199 190.165C20.879 207.149 13.7862 226.684 11.665 247.053C9.54393 267.421 12.4595 287.998 20.1554 306.976C27.8513 325.953 40.0918 342.749 55.8006 355.887C71.5094 369.024 90.2053 378.101 110.245 382.319C130.284 386.538 151.052 385.768 170.724 380.078C190.396 374.388 208.369 363.952 223.063 349.688L223.125 349.625C225.828 347.6 228.728 345.851 231.781 344.406C238.219 341.344 248.062 338.125 261 338.125C271.097 338.009 281.091 340.155 290.25 344.406C293.292 345.853 296.182 347.601 298.875 349.625L298.938 349.688C322.24 372.365 353.484 385.038 386 385Z" fill="white"/>
<path d="M101.584 189.75C95.1156 189.75 89.875 195 89.875 201.469V290.484C89.875 296.953 95.125 302.203 101.584 302.203H106.272C112.741 302.203 117.981 296.953 117.981 290.484V201.459C117.981 194.991 112.731 189.75 106.263 189.75H101.584ZM139.056 189.75C132.588 189.75 127.338 195 127.338 201.469V290.484C127.338 296.953 132.588 302.203 139.056 302.203H143.744C146.849 302.198 149.824 300.961 152.018 298.764C154.212 296.567 155.444 293.589 155.444 290.484V201.459C155.441 198.355 154.207 195.378 152.011 193.182C149.816 190.987 146.839 189.752 143.734 189.75H139.056ZM192.738 215.784C191.614 212.99 189.456 210.736 186.713 209.491C183.97 208.246 180.853 208.106 178.009 209.1L172.553 211.012C171.06 211.537 169.689 212.358 168.522 213.426C167.355 214.495 166.416 215.789 165.762 217.23C165.109 218.671 164.754 220.229 164.719 221.811C164.684 223.393 164.97 224.966 165.559 226.434L193.094 294.909C195.428 300.722 201.906 303.656 207.822 301.594L213.278 299.681C214.772 299.157 216.145 298.336 217.313 297.267C218.481 296.197 219.42 294.903 220.073 293.46C220.727 292.018 221.081 290.459 221.116 288.876C221.15 287.293 220.863 285.719 220.272 284.25L192.738 215.784Z" fill="white"/>
<path d="M311.584 189.75C305.116 189.75 299.875 195 299.875 201.469V290.484C299.875 296.953 305.125 302.203 311.584 302.203H316.272C322.741 302.203 327.981 296.953 327.981 290.484V201.459C327.981 194.991 322.731 189.75 316.263 189.75H311.584ZM349.056 189.75C342.588 189.75 337.338 195 337.338 201.469V290.484C337.338 296.953 342.588 302.203 349.056 302.203H353.744C356.849 302.198 359.824 300.961 362.018 298.764C364.212 296.567 365.444 293.589 365.444 290.484V201.459C365.441 198.355 364.207 195.378 362.011 193.182C359.816 190.987 356.839 189.752 353.734 189.75H349.056ZM402.738 215.784C401.614 212.99 399.456 210.736 396.713 209.491C393.97 208.246 390.853 208.106 388.009 209.1L382.553 211.012C381.06 211.537 379.689 212.358 378.522 213.426C377.355 214.495 376.416 215.789 375.762 217.23C375.109 218.671 374.754 220.229 374.719 221.811C374.684 223.393 374.97 224.966 375.559 226.434L403.094 294.909C405.428 300.722 411.906 303.656 417.822 301.594L423.278 299.681C424.772 299.157 426.145 298.336 427.313 297.267C428.481 296.197 429.42 294.903 430.073 293.46C430.727 292.018 431.081 290.459 431.116 288.876C431.15 287.293 430.863 285.719 430.272 284.25L402.738 215.784Z" fill="white"/>
<path d="M35.6108 479H27.3011L51.3352 413.545H59.5171L83.5511 479H75.2415L55.6818 423.901H55.1705L35.6108 479ZM38.679 453.432H72.1733V460.463H38.679V453.432Z" fill="black"/>
<path d="M100.266 449.469V479H92.7237V429.909H100.011V437.58H100.65C101.8 435.087 103.548 433.084 105.891 431.571C108.235 430.037 111.261 429.27 114.968 429.27C118.292 429.27 121.2 429.952 123.693 431.315C126.186 432.658 128.125 434.703 129.51 437.452C130.895 440.179 131.587 443.631 131.587 447.807V479H124.045V448.318C124.045 444.462 123.043 441.457 121.04 439.305C119.038 437.132 116.289 436.045 112.795 436.045C110.387 436.045 108.235 436.567 106.339 437.611C104.464 438.656 102.983 440.179 101.896 442.182C100.81 444.185 100.266 446.614 100.266 449.469Z" fill="black"/>
<path d="M165.186 498.432C161.542 498.432 158.41 497.963 155.789 497.026C153.169 496.109 150.985 494.895 149.237 493.382C147.512 491.891 146.137 490.293 145.115 488.588L151.123 484.369C151.805 485.264 152.668 486.287 153.712 487.437C154.756 488.609 156.183 489.621 157.995 490.474C159.827 491.347 162.224 491.784 165.186 491.784C169.149 491.784 172.419 490.825 174.997 488.908C177.575 486.99 178.865 483.986 178.865 479.895V469.923H178.225C177.671 470.818 176.883 471.926 175.86 473.247C174.859 474.547 173.41 475.708 171.514 476.731C169.639 477.732 167.103 478.233 163.907 478.233C159.944 478.233 156.386 477.295 153.232 475.42C150.1 473.545 147.618 470.818 145.786 467.239C143.975 463.659 143.069 459.312 143.069 454.199C143.069 449.17 143.953 444.792 145.722 441.063C147.49 437.313 149.951 434.415 153.105 432.37C156.258 430.303 159.901 429.27 164.035 429.27C167.231 429.27 169.767 429.803 171.642 430.868C173.538 431.912 174.987 433.105 175.988 434.447C177.011 435.768 177.799 436.855 178.353 437.707H179.12V429.909H186.407V480.406C186.407 484.625 185.448 488.055 183.531 490.697C181.634 493.361 179.078 495.31 175.86 496.546C172.664 497.803 169.106 498.432 165.186 498.432ZM164.93 471.457C167.955 471.457 170.512 470.765 172.6 469.38C174.688 467.995 176.276 466.003 177.362 463.403C178.449 460.804 178.992 457.693 178.992 454.071C178.992 450.534 178.46 447.413 177.394 444.707C176.329 442.001 174.752 439.881 172.664 438.347C170.576 436.812 167.998 436.045 164.93 436.045C161.734 436.045 159.07 436.855 156.94 438.474C154.83 440.094 153.243 442.267 152.178 444.994C151.134 447.722 150.612 450.747 150.612 454.071C150.612 457.48 151.144 460.495 152.21 463.116C153.296 465.715 154.894 467.761 157.004 469.252C159.134 470.722 161.776 471.457 164.93 471.457Z" fill="black"/>
<path d="M220.157 480.023C215.725 480.023 211.837 478.968 208.492 476.859C205.168 474.749 202.568 471.798 200.693 468.006C198.84 464.213 197.913 459.781 197.913 454.71C197.913 449.597 198.84 445.133 200.693 441.319C202.568 437.505 205.168 434.543 208.492 432.434C211.837 430.325 215.725 429.27 220.157 429.27C224.589 429.27 228.467 430.325 231.791 432.434C235.136 434.543 237.735 437.505 239.589 441.319C241.464 445.133 242.401 449.597 242.401 454.71C242.401 459.781 241.464 464.213 239.589 468.006C237.735 471.798 235.136 474.749 231.791 476.859C228.467 478.968 224.589 480.023 220.157 480.023ZM220.157 473.247C223.524 473.247 226.294 472.384 228.467 470.658C230.64 468.932 232.249 466.663 233.293 463.851C234.337 461.038 234.859 457.991 234.859 454.71C234.859 451.429 234.337 448.371 233.293 445.538C232.249 442.704 230.64 440.413 228.467 438.666C226.294 436.919 223.524 436.045 220.157 436.045C216.791 436.045 214.021 436.919 211.847 438.666C209.674 440.413 208.066 442.704 207.021 445.538C205.977 448.371 205.455 451.429 205.455 454.71C205.455 457.991 205.977 461.038 207.021 463.851C208.066 466.663 209.674 468.932 211.847 470.658C214.021 472.384 216.791 473.247 220.157 473.247Z" fill="black"/>
<path d="M284.853 458.929V429.909H292.395V479H284.853V470.69H284.341C283.191 473.183 281.401 475.303 278.972 477.05C276.543 478.776 273.475 479.639 269.767 479.639C266.699 479.639 263.972 478.968 261.586 477.626C259.199 476.262 257.324 474.217 255.961 471.489C254.597 468.741 253.915 465.278 253.915 461.102V429.909H261.458V460.591C261.458 464.17 262.459 467.026 264.462 469.156C266.486 471.287 269.064 472.352 272.196 472.352C274.071 472.352 275.978 471.873 277.917 470.914C279.878 469.955 281.518 468.485 282.839 466.504C284.181 464.522 284.853 461.997 284.853 458.929Z" fill="black"/>
<path d="M313.753 413.545V479H306.21V413.545H313.753Z" fill="black"/>
<path d="M348.15 480.023C343.42 480.023 339.339 478.979 335.909 476.891C332.5 474.781 329.869 471.841 328.015 468.07C326.183 464.277 325.266 459.866 325.266 454.838C325.266 449.81 326.183 445.378 328.015 441.543C329.869 437.686 332.447 434.682 335.749 432.53C339.073 430.357 342.951 429.27 347.383 429.27C349.94 429.27 352.465 429.696 354.957 430.548C357.45 431.401 359.719 432.785 361.765 434.703C363.81 436.599 365.44 439.114 366.655 442.246C367.869 445.378 368.477 449.234 368.477 453.815V457.011H330.636V450.491H360.806C360.806 447.722 360.252 445.25 359.144 443.077C358.058 440.903 356.502 439.188 354.478 437.931C352.475 436.674 350.11 436.045 347.383 436.045C344.379 436.045 341.779 436.791 339.585 438.283C337.411 439.753 335.739 441.67 334.567 444.035C333.395 446.401 332.809 448.936 332.809 451.642V455.989C332.809 459.696 333.448 462.839 334.727 465.417C336.026 467.974 337.827 469.923 340.128 471.266C342.429 472.587 345.103 473.247 348.15 473.247C350.131 473.247 351.921 472.97 353.519 472.416C355.138 471.841 356.534 470.989 357.706 469.859C358.878 468.709 359.783 467.281 360.423 465.577L367.71 467.622C366.942 470.094 365.653 472.267 363.842 474.142C362.031 475.996 359.794 477.445 357.131 478.489C354.467 479.511 351.474 480.023 348.15 480.023ZM353.647 424.028L346.999 415.08L340.352 424.028H333.192V423.517L343.548 410.222H350.451L360.806 423.517V424.028H353.647Z" fill="black"/>
<path d="M379.95 479V429.909H387.237V437.58H387.876C388.899 434.959 390.55 432.924 392.83 431.475C395.11 430.005 397.848 429.27 401.044 429.27C404.283 429.27 406.978 430.005 409.13 431.475C411.303 432.924 412.997 434.959 414.212 437.58H414.723C415.98 435.044 417.866 433.031 420.38 431.539C422.894 430.026 425.909 429.27 429.425 429.27C433.814 429.27 437.404 430.644 440.195 433.393C442.987 436.12 444.382 440.371 444.382 446.145V479H436.839V446.145C436.839 442.523 435.849 439.934 433.867 438.379C431.886 436.823 429.553 436.045 426.868 436.045C423.416 436.045 420.742 437.089 418.846 439.178C416.95 441.244 416.001 443.865 416.001 447.04V479H408.331V445.378C408.331 442.587 407.425 440.339 405.614 438.634C403.803 436.908 401.47 436.045 398.615 436.045C396.655 436.045 394.822 436.567 393.118 437.611C391.435 438.656 390.071 440.104 389.027 441.958C388.004 443.79 387.493 445.91 387.493 448.318V479H379.95Z" fill="black"/>
<path d="M478.755 480.023C474.025 480.023 469.945 478.979 466.515 476.891C463.105 474.781 460.474 471.841 458.62 468.07C456.788 464.277 455.872 459.866 455.872 454.838C455.872 449.81 456.788 445.378 458.62 441.543C460.474 437.686 463.052 434.682 466.355 432.53C469.679 430.357 473.556 429.27 477.988 429.27C480.545 429.27 483.07 429.696 485.563 430.548C488.056 431.401 490.325 432.785 492.37 434.703C494.416 436.599 496.046 439.114 497.26 442.246C498.475 445.378 499.082 449.234 499.082 453.815V457.011H461.241V450.491H491.412C491.412 447.722 490.858 445.25 489.75 443.077C488.663 440.903 487.108 439.188 485.083 437.931C483.081 436.674 480.716 436.045 477.988 436.045C474.984 436.045 472.385 436.791 470.19 438.283C468.017 439.753 466.344 441.67 465.172 444.035C464 446.401 463.414 448.936 463.414 451.642V455.989C463.414 459.696 464.054 462.839 465.332 465.417C466.632 467.974 468.432 469.923 470.733 471.266C473.034 472.587 475.708 473.247 478.755 473.247C480.737 473.247 482.527 472.97 484.125 472.416C485.744 471.841 487.14 470.989 488.311 469.859C489.483 468.709 490.389 467.281 491.028 465.577L498.315 467.622C497.548 470.094 496.259 472.267 494.448 474.142C492.637 475.996 490.4 477.445 487.736 478.489C485.073 479.511 482.079 480.023 478.755 480.023Z" fill="black"/>
<path d="M276.62 551.94C276.3 551.94 276.04 551.88 275.84 551.76C275.64 551.68 275.56 551.48 275.6 551.16C275.6 551.04 275.66 550.86 275.78 550.62C275.9 550.38 275.98 550.2 276.02 550.08C276.22 549.52 276.4 548.96 276.56 548.4C276.72 547.8 276.88 547.24 277.04 546.72C277.6 544.52 278.12 542.34 278.6 540.18C279.08 537.98 279.46 535.78 279.74 533.58C279.9 532.3 280.1 530.58 280.34 528.42C280.58 526.22 280.7 524.1 280.7 522.06C280.7 521.26 280.68 520.52 280.64 519.84C280.6 519.12 280.5 518.48 280.34 517.92C279.02 517.92 277.7 517.92 276.38 517.92C275.06 517.88 273.76 517.86 272.48 517.86C271.88 517.86 271.04 517.9 269.96 517.98C268.92 518.06 267.84 518.24 266.72 518.52C265.64 518.8 264.74 519.26 264.02 519.9C263.3 520.54 262.98 521.4 263.06 522.48C263.1 522.8 263.22 523.24 263.42 523.8C263.62 524.32 263.76 524.64 263.84 524.76L263.18 525.24C262.94 524.8 262.64 524.3 262.28 523.74C261.92 523.14 261.6 522.56 261.32 522C261.04 521.44 260.88 521.02 260.84 520.74C260.8 520.34 260.82 519.82 260.9 519.18C260.98 518.54 261.3 517.98 261.86 517.5C262.46 516.98 263.28 516.64 264.32 516.48C265.4 516.32 266.5 516.24 267.62 516.24C268.7 516.24 269.74 516.28 270.74 516.36C271.74 516.44 272.56 516.48 273.2 516.48C273.2 516.48 273.66 516.48 274.58 516.48C275.5 516.48 276.66 516.48 278.06 516.48C279.5 516.44 281.02 516.42 282.62 516.42C284.22 516.42 285.68 516.42 287 516.42L285.74 517.98H281.54C282.14 519.1 282.52 520.66 282.68 522.66C282.88 524.66 282.98 526.58 282.98 528.42C282.98 529.18 282.98 529.9 282.98 530.58C282.98 531.26 282.96 531.86 282.92 532.38C282.84 534.26 282.58 536.52 282.14 539.16C281.7 541.8 281.14 544.3 280.46 546.66C282.1 544.34 284.1 541.58 286.46 538.38C288.86 535.18 291.6 531.86 294.68 528.42C297.8 524.94 301.24 521.64 305 518.52C305.76 517.88 306.76 517.16 308 516.36C309.24 515.56 310.56 514.88 311.96 514.32C313.36 513.72 314.68 513.42 315.92 513.42C317.08 513.42 317.88 513.62 318.32 514.02C318.8 514.42 319.04 514.94 319.04 515.58C319.04 516.34 318.8 517.18 318.32 518.1C317.88 519.02 317.54 519.78 317.3 520.38C317.26 520.5 317.08 520.58 316.76 520.62C316.44 520.66 316.3 520.6 316.34 520.44C316.42 520.12 316.5 519.74 316.58 519.3C316.7 518.82 316.76 518.34 316.76 517.86C316.76 517.22 316.64 516.64 316.4 516.12C316.16 515.6 315.7 515.3 315.02 515.22C314.9 515.18 314.78 515.16 314.66 515.16C314.54 515.16 314.42 515.16 314.3 515.16C313.14 515.16 311.88 515.56 310.52 516.36C309.2 517.12 307.66 518.2 305.9 519.6C302.54 522.28 299.34 525.24 296.3 528.48C293.3 531.68 290.42 535.04 287.66 538.56C286.22 540.36 284.82 542.18 283.46 544.02C282.1 545.86 280.84 547.78 279.68 549.78C279.6 549.94 279.52 550.12 279.44 550.32C279.4 550.56 279.34 550.74 279.26 550.86C279.18 550.94 278.94 551.06 278.54 551.22C278.14 551.42 277.74 551.58 277.34 551.7C276.98 551.86 276.74 551.94 276.62 551.94Z" fill="black"/>
<path d="M306.805 526.08C306.245 526.08 305.845 525.9 305.605 525.54C305.445 525.34 305.365 525.08 305.365 524.76C305.365 524.12 305.665 523.6 306.265 523.2C306.705 522.96 307.105 522.84 307.465 522.84C308.065 522.84 308.485 523.02 308.725 523.38C308.885 523.58 308.965 523.84 308.965 524.16C308.965 524.8 308.645 525.32 308.005 525.72C307.645 525.96 307.245 526.08 306.805 526.08ZM296.365 549.18C295.965 549.18 295.625 549.1 295.345 548.94C295.105 548.78 294.985 548.48 294.985 548.04C294.985 547.48 295.125 546.82 295.405 546.06C295.725 545.3 296.065 544.54 296.425 543.78C296.825 543.02 297.125 542.4 297.325 541.92C297.605 541.36 297.945 540.64 298.345 539.76C298.785 538.84 299.185 537.98 299.545 537.18C299.945 536.34 300.225 535.76 300.385 535.44C299.825 536.04 299.145 536.8 298.345 537.72C297.585 538.6 296.865 539.46 296.185 540.3C295.505 541.14 294.985 541.8 294.625 542.28C294.505 542.44 294.405 542.52 294.325 542.52C294.245 542.52 294.205 542.42 294.205 542.22C294.205 541.9 294.305 541.6 294.505 541.32C295.265 540.36 296.105 539.28 297.025 538.08C297.985 536.88 298.845 535.78 299.605 534.78C300.365 533.74 300.845 533.06 301.045 532.74C301.485 532.66 302.125 532.54 302.965 532.38C303.845 532.22 304.445 532 304.765 531.72C304.885 531.6 305.005 531.54 305.125 531.54C305.205 531.54 305.245 531.62 305.245 531.78C305.285 531.9 305.245 532.04 305.125 532.2C304.885 532.48 304.465 533.16 303.865 534.24C303.265 535.32 302.625 536.52 301.945 537.84C301.305 539.12 300.705 540.28 300.145 541.32C299.585 542.4 299.105 543.44 298.705 544.44C298.305 545.44 298.105 546.16 298.105 546.6C298.105 547.16 298.385 547.44 298.945 547.44C299.465 547.44 300.125 547.12 300.925 546.48C301.765 545.84 302.605 545.08 303.445 544.2C304.285 543.28 305.025 542.44 305.665 541.68C305.865 541.44 306.105 541.16 306.385 540.84C306.705 540.48 306.905 540.26 306.985 540.18C307.065 540.26 307.105 540.4 307.105 540.6C307.065 540.88 306.965 541.16 306.805 541.44C306.645 541.68 306.485 541.9 306.325 542.1C305.485 543.14 304.565 544.22 303.565 545.34C302.565 546.42 301.465 547.34 300.265 548.1C299.065 548.82 297.765 549.18 296.365 549.18Z" fill="black"/>
<path d="M306.228 549.84C306.068 549.84 306.068 549.68 306.228 549.36C306.428 549 306.608 548.6 306.768 548.16C306.968 547.72 307.168 547.24 307.368 546.72C307.768 545.76 308.208 544.68 308.688 543.48C309.168 542.28 309.628 541.12 310.068 540C310.508 538.84 310.888 537.86 311.208 537.06C311.568 536.22 311.808 535.68 311.928 535.44C311.368 536.04 310.688 536.8 309.888 537.72C309.128 538.6 308.408 539.46 307.728 540.3C307.048 541.14 306.528 541.8 306.168 542.28C306.048 542.44 305.948 542.52 305.868 542.52C305.788 542.52 305.748 542.42 305.748 542.22C305.748 541.9 305.848 541.6 306.048 541.32C306.808 540.36 307.648 539.28 308.568 538.08C309.528 536.88 310.388 535.78 311.148 534.78C311.908 533.74 312.388 533.06 312.588 532.74C313.028 532.66 313.668 532.54 314.508 532.38C315.388 532.22 315.988 532 316.308 531.72C316.428 531.6 316.548 531.54 316.668 531.54C316.748 531.54 316.788 531.62 316.788 531.78C316.828 531.9 316.788 532.04 316.668 532.2C316.428 532.44 316.068 532.96 315.588 533.76C315.148 534.56 314.648 535.48 314.088 536.52C313.528 537.56 312.988 538.56 312.468 539.52C312.868 538.92 313.388 538.22 314.028 537.42C314.708 536.58 315.448 535.78 316.248 535.02C317.048 534.22 317.848 533.56 318.648 533.04C319.488 532.52 320.268 532.26 320.988 532.26C321.508 532.26 321.948 532.38 322.308 532.62C322.668 532.82 322.948 533.2 323.148 533.76C323.268 534.04 323.328 534.36 323.328 534.72C323.328 535.4 323.148 536.06 322.788 536.7C322.468 537.3 322.228 537.76 322.068 538.08C322.028 538.2 321.888 538.32 321.648 538.44C321.408 538.52 321.308 538.48 321.348 538.32C321.388 538.12 321.408 537.92 321.408 537.72C321.448 537.52 321.468 537.3 321.468 537.06C321.468 536.38 321.328 535.76 321.048 535.2C320.808 534.64 320.348 534.36 319.668 534.36C319.028 534.36 318.248 534.76 317.328 535.56C316.408 536.36 315.488 537.28 314.568 538.32C313.408 539.68 312.488 540.98 311.808 542.22C311.128 543.42 310.568 544.6 310.128 545.76C309.888 546.4 309.648 547.04 309.408 547.68C309.168 548.28 308.988 548.76 308.868 549.12C308.348 549.16 307.828 549.28 307.308 549.48C306.788 549.72 306.428 549.84 306.228 549.84Z" fill="black"/>
<path d="M324.616 549.18C324.216 549.18 323.876 549.1 323.596 548.94C323.316 548.78 323.176 548.48 323.176 548.04C323.176 547.48 323.316 546.82 323.596 546.06C323.916 545.3 324.256 544.54 324.616 543.78C324.976 543.02 325.276 542.4 325.516 541.92C325.716 541.56 325.976 541 326.296 540.24C326.656 539.44 327.016 538.62 327.376 537.78C327.776 536.9 328.096 536.16 328.336 535.56C328.616 534.96 328.756 534.66 328.756 534.66C328.396 535.06 327.916 535.62 327.316 536.34C326.756 537.06 326.136 537.82 325.456 538.62C324.816 539.38 324.216 540.1 323.656 540.78C323.136 541.46 322.756 541.96 322.516 542.28C322.396 542.44 322.296 542.52 322.216 542.52C322.136 542.52 322.096 542.42 322.096 542.22C322.096 541.9 322.196 541.6 322.396 541.32C322.876 540.72 323.456 540 324.136 539.16C324.816 538.28 325.496 537.4 326.176 536.52C326.896 535.64 327.516 534.86 328.036 534.18C327.716 534.18 327.296 534.2 326.776 534.24C326.296 534.28 325.856 534.34 325.456 534.42C325.056 534.46 324.836 534.48 324.796 534.48C324.596 534.48 324.616 534.32 324.856 534C325.096 533.68 325.416 533.36 325.816 533.04C326.216 532.72 326.516 532.56 326.716 532.56C326.756 532.56 327.076 532.58 327.676 532.62C328.276 532.62 328.716 532.62 328.996 532.62C329.796 531.54 330.576 530.3 331.336 528.9C332.136 527.5 332.916 525.96 333.676 524.28C333.996 524.24 334.536 524.02 335.296 523.62C336.096 523.18 336.716 522.74 337.156 522.3C337.356 522.1 337.516 522 337.636 522C337.876 522 337.876 522.16 337.636 522.48C337.356 522.8 336.876 523.48 336.196 524.52C335.516 525.52 334.756 526.74 333.916 528.18C333.076 529.58 332.276 531.06 331.516 532.62H336.376C336.816 532.62 337.036 532.68 337.036 532.8C337.036 532.96 336.736 533.12 336.136 533.28C335.456 533.48 334.736 533.6 333.976 533.64C333.256 533.68 332.576 533.76 331.936 533.88C331.336 534 330.896 534.26 330.616 534.66C330.376 534.94 330.036 535.54 329.596 536.46C329.156 537.38 328.676 538.44 328.156 539.64C327.676 540.8 327.256 541.98 326.896 543.18C326.536 544.34 326.316 545.32 326.236 546.12V546.36C326.236 546.68 326.336 546.94 326.536 547.14C326.736 547.34 326.936 547.44 327.136 547.44C327.656 547.44 328.316 547.12 329.116 546.48C329.956 545.84 330.816 545.08 331.696 544.2C332.576 543.28 333.336 542.44 333.976 541.68C334.256 541.36 334.496 541.06 334.696 540.78C334.936 540.5 335.076 540.32 335.116 540.24C335.196 540.4 335.236 540.52 335.236 540.6C335.236 540.84 335.156 541.1 334.996 541.38C334.876 541.66 334.736 541.9 334.576 542.1C333.816 543.1 332.896 544.16 331.816 545.28C330.736 546.36 329.576 547.28 328.336 548.04C327.136 548.8 325.896 549.18 324.616 549.18Z" fill="black"/>
<path d="M337.47 549.18C337.07 549.18 336.73 549.1 336.45 548.94C336.17 548.78 336.03 548.48 336.03 548.04C336.03 547.48 336.17 546.82 336.45 546.06C336.77 545.3 337.11 544.54 337.47 543.78C337.83 543.02 338.13 542.4 338.37 541.92C338.85 541 339.31 540.08 339.75 539.16C340.19 538.24 340.57 537.46 340.89 536.82C341.21 536.22 341.37 535.82 341.37 535.62C341.37 535.3 341.13 535.3 340.65 535.62C340.21 535.94 339.79 536.26 339.39 536.58C338.51 537.42 337.59 538.42 336.63 539.58C335.67 540.7 334.93 541.6 334.41 542.28C334.29 542.44 334.19 542.52 334.11 542.52C334.03 542.52 333.99 542.42 333.99 542.22C333.99 541.9 334.09 541.6 334.29 541.32C334.85 540.52 335.51 539.64 336.27 538.68C337.03 537.72 337.81 536.8 338.61 535.92C339.37 535.12 340.15 534.34 340.95 533.58C341.75 532.82 342.77 532.44 344.01 532.44C344.85 532.44 345.27 532.76 345.27 533.4C345.27 533.96 345.03 534.6 344.55 535.32C344.27 535.76 343.83 536.5 343.23 537.54C342.63 538.58 342.01 539.72 341.37 540.96C340.77 542.16 340.25 543.28 339.81 544.32C339.37 545.36 339.15 546.12 339.15 546.6C339.15 547.16 339.43 547.44 339.99 547.44C340.43 547.44 340.97 547.22 341.61 546.78C342.25 546.3 342.91 545.74 343.59 545.1C344.83 543.9 345.95 542.6 346.95 541.2C347.99 539.76 348.87 538.38 349.59 537.06C350.35 535.74 350.95 534.66 351.39 533.82C351.47 533.66 351.55 533.48 351.63 533.28C351.75 533.04 351.93 532.9 352.17 532.86C352.41 532.82 352.93 532.8 353.73 532.8C354.53 532.8 355.27 532.64 355.95 532.32H356.07C356.19 532.32 356.25 532.38 356.25 532.5C356.25 532.82 355.99 533.06 355.47 533.22C354.99 533.38 354.43 533.86 353.79 534.66C353.19 535.46 352.59 536.44 351.99 537.6C351.39 538.72 350.85 539.88 350.37 541.08C349.89 542.28 349.53 543.38 349.29 544.38C349.05 545.38 348.99 546.12 349.11 546.6C349.27 547.16 349.55 547.44 349.95 547.44C350.47 547.44 351.19 547.12 352.11 546.48C353.07 545.84 354.05 545.08 355.05 544.2C356.05 543.28 356.87 542.44 357.51 541.68C357.79 541.36 358.05 541.04 358.29 540.72C358.53 540.4 358.69 540.2 358.77 540.12C358.81 540.16 358.85 540.24 358.89 540.36C358.93 540.44 358.95 540.52 358.95 540.6C358.91 540.88 358.81 541.16 358.65 541.44C358.49 541.68 358.31 541.9 358.11 542.1C357.35 543.1 356.43 544.16 355.35 545.28C354.31 546.36 353.17 547.28 351.93 548.04C350.73 548.8 349.49 549.18 348.21 549.18C347.81 549.18 347.35 549.08 346.83 548.88C346.35 548.68 346.11 548.24 346.11 547.56C346.11 547.04 346.25 546.34 346.53 545.46C346.81 544.54 347.11 543.64 347.43 542.76C347.79 541.84 348.09 541.16 348.33 540.72C347.81 541.48 347.17 542.34 346.41 543.3C345.69 544.22 344.95 545.04 344.19 545.76C343.19 546.72 342.11 547.54 340.95 548.22C339.83 548.86 338.67 549.18 337.47 549.18Z" fill="black"/>
<path d="M365.825 549.18C365.425 549.18 365.085 549.1 364.805 548.94C364.525 548.78 364.385 548.48 364.385 548.04C364.385 547.48 364.525 546.84 364.805 546.12C365.085 545.4 365.405 544.7 365.765 544.02C366.125 543.3 366.445 542.72 366.725 542.28C365.325 543.76 363.865 545.16 362.345 546.48C361.585 547.12 360.745 547.72 359.825 548.28C358.905 548.84 357.925 549.12 356.885 549.12C356.485 549.12 356.205 549 356.045 548.76C355.885 548.48 355.805 548.16 355.805 547.8C355.805 547.6 355.825 547.46 355.865 547.38C356.065 545.82 356.565 544.2 357.365 542.52C358.165 540.84 359.145 539.26 360.305 537.78C361.465 536.3 362.645 535.1 363.845 534.18C365.205 533.14 366.705 532.62 368.345 532.62H375.245C375.445 532.62 375.545 532.7 375.545 532.86C375.545 533.18 375.365 533.34 375.005 533.34C374.605 533.34 374.205 533.6 373.805 534.12C373.405 534.6 373.105 535 372.905 535.32C372.625 535.76 372.185 536.5 371.585 537.54C370.985 538.58 370.365 539.72 369.725 540.96C369.125 542.16 368.605 543.28 368.165 544.32C367.725 545.36 367.505 546.12 367.505 546.6C367.505 547.16 367.785 547.44 368.345 547.44C368.945 547.44 369.625 547.16 370.385 546.6C371.145 546.04 371.905 545.36 372.665 544.56C373.465 543.72 374.185 542.9 374.825 542.1C375.505 541.26 376.045 540.6 376.445 540.12C376.685 540.36 376.665 540.7 376.385 541.14C376.145 541.54 375.925 541.86 375.725 542.1C374.925 543.14 374.005 544.22 372.965 545.34C371.925 546.42 370.785 547.34 369.545 548.1C368.345 548.82 367.105 549.18 365.825 549.18ZM359.345 547.08C359.825 547.08 360.485 546.74 361.325 546.06C362.205 545.34 363.145 544.46 364.145 543.42C365.145 542.34 366.085 541.22 366.965 540.06C367.845 538.86 368.565 537.78 369.125 536.82C369.725 535.82 370.025 535.06 370.025 534.54C370.025 534.1 369.885 533.8 369.605 533.64C369.365 533.48 369.045 533.4 368.645 533.4C368.005 533.4 367.305 533.64 366.545 534.12C365.825 534.56 365.245 535 364.805 535.44C364.325 535.88 363.745 536.58 363.065 537.54C362.425 538.46 361.785 539.48 361.145 540.6C360.505 541.72 359.965 542.8 359.525 543.84C359.085 544.88 358.865 545.72 358.865 546.36C358.865 546.84 359.025 547.08 359.345 547.08Z" fill="black"/>
<path d="M379.262 549.12C378.062 549.12 377.242 548.84 376.802 548.28C376.362 547.68 376.142 546.96 376.142 546.12C376.142 545 376.382 543.8 376.862 542.52C377.382 541.24 377.802 540.24 378.122 539.52C377.602 540.08 377.102 540.62 376.622 541.14C376.142 541.66 375.802 542.04 375.602 542.28C375.482 542.44 375.382 542.52 375.302 542.52C375.222 542.52 375.182 542.42 375.182 542.22C375.182 541.9 375.282 541.6 375.482 541.32C376.042 540.6 376.682 539.84 377.402 539.04C378.122 538.24 378.822 537.4 379.502 536.52C380.302 535.04 381.182 533.32 382.142 531.36C383.142 529.36 384.162 527.32 385.202 525.24C386.282 523.12 387.322 521.18 388.322 519.42C389.362 517.62 390.282 516.18 391.082 515.1C391.762 514.82 392.402 514.46 393.002 514.02C393.642 513.58 394.262 513.18 394.862 512.82C395.502 512.42 396.162 512.22 396.842 512.22C397.282 512.22 397.602 512.34 397.802 512.58C398.042 512.82 398.202 513.1 398.282 513.42C398.322 513.54 398.342 513.76 398.342 514.08C398.342 515 398.022 516.12 397.382 517.44C396.782 518.76 396.062 520.06 395.222 521.34C394.422 522.58 393.722 523.6 393.122 524.4C391.522 526.64 389.882 528.68 388.202 530.52C386.522 532.32 385.002 533.84 383.642 535.08C382.322 536.28 381.362 537.16 380.762 537.72C380.482 538.24 380.142 538.94 379.742 539.82C379.382 540.66 379.062 541.56 378.782 542.52C378.502 543.44 378.362 544.3 378.362 545.1C378.362 545.78 378.522 546.36 378.842 546.84C379.162 547.28 379.702 547.5 380.462 547.5C380.582 547.5 380.702 547.5 380.822 547.5C380.942 547.5 381.082 547.48 381.242 547.44C381.922 547.32 382.662 546.94 383.462 546.3C384.262 545.66 385.062 544.92 385.862 544.08C386.662 543.24 387.382 542.44 388.022 541.68C388.302 541.36 388.562 541.06 388.802 540.78C389.042 540.46 389.202 540.24 389.282 540.12C389.562 540.4 389.542 540.76 389.222 541.2C388.942 541.6 388.702 541.94 388.502 542.22C388.222 542.58 387.822 543.08 387.302 543.72C386.782 544.32 386.182 544.98 385.502 545.7C384.742 546.46 383.802 547.22 382.682 547.98C381.562 548.74 380.422 549.12 379.262 549.12ZM381.782 535.32C383.022 534.28 384.582 532.8 386.462 530.88C388.382 528.92 390.262 526.56 392.102 523.8C392.302 523.48 392.622 522.94 393.062 522.18C393.542 521.42 394.022 520.56 394.502 519.6C395.022 518.6 395.462 517.64 395.822 516.72C396.182 515.76 396.362 514.94 396.362 514.26C396.362 513.62 396.182 513.3 395.822 513.3C395.382 513.3 394.802 513.68 394.082 514.44C393.242 515.32 392.282 516.62 391.202 518.34C390.162 520.02 389.062 521.9 387.902 523.98C386.742 526.06 385.622 528.1 384.542 530.1C383.502 532.1 382.582 533.84 381.782 535.32Z" fill="black"/>
<path d="M396.71 549.42C396.67 549.46 396.63 549.48 396.59 549.48C396.47 549.48 396.41 549.3 396.41 548.94C396.41 548.7 396.47 548.46 396.59 548.22C396.75 547.94 397.03 547.78 397.43 547.74C398.55 547.66 399.61 547.28 400.61 546.6C401.61 545.92 402.49 545.12 403.25 544.2C404.01 543.24 404.55 542.34 404.87 541.5L410.39 527.7C411.15 525.82 412.01 524 412.97 522.24C413.97 520.48 415.23 519.04 416.75 517.92C418.31 516.8 420.27 516.24 422.63 516.24C423.55 516.24 424.47 516.36 425.39 516.6C426.35 516.8 427.15 517.14 427.79 517.62C428.43 518.1 428.75 518.78 428.75 519.66C428.75 519.78 428.75 519.9 428.75 520.02C428.75 520.14 428.73 520.26 428.69 520.38C428.57 521.02 428.21 521.66 427.61 522.3C427.05 522.94 426.61 523.74 426.29 524.7C426.25 524.98 426.07 525.12 425.75 525.12C425.47 525.12 425.41 524.94 425.57 524.58C425.89 524.1 426.13 523.54 426.29 522.9C426.49 522.22 426.59 521.54 426.59 520.86C426.59 519.82 426.35 518.9 425.87 518.1C425.39 517.3 424.57 516.9 423.41 516.9C422.37 516.9 421.31 517.2 420.23 517.8C419.15 518.4 418.21 519.44 417.41 520.92L406.31 541.38C405.27 543.3 404.31 544.68 403.43 545.52C402.59 546.32 401.89 546.82 401.33 547.02H415.79C417.71 547.02 419.49 546.96 421.13 546.84C422.77 546.72 423.77 546.42 424.13 545.94C424.53 545.38 424.73 544.78 424.73 544.14C424.73 543.14 424.19 542.4 423.11 541.92C422.99 541.84 422.93 541.76 422.93 541.68C422.93 541.6 422.97 541.52 423.05 541.44C423.17 541.36 423.31 541.36 423.47 541.44C423.83 541.6 424.25 541.96 424.73 542.52C425.25 543.04 425.73 543.62 426.17 544.26C426.61 544.86 426.89 545.34 427.01 545.7C427.13 546.06 427.19 546.42 427.19 546.78C427.19 548.42 425.77 549.24 422.93 549.24C420.69 549.24 418.29 549.16 415.73 549C413.17 548.84 410.63 548.66 408.11 548.46C405.63 548.26 403.29 548.12 401.09 548.04C400.25 547.96 399.41 548.08 398.57 548.4C397.77 548.68 397.15 549.02 396.71 549.42Z" fill="black"/>
<path d="M443.563 526.08C443.003 526.08 442.603 525.9 442.363 525.54C442.203 525.34 442.123 525.08 442.123 524.76C442.123 524.12 442.423 523.6 443.023 523.2C443.463 522.96 443.863 522.84 444.223 522.84C444.823 522.84 445.243 523.02 445.483 523.38C445.643 523.58 445.723 523.84 445.723 524.16C445.723 524.8 445.403 525.32 444.763 525.72C444.403 525.96 444.003 526.08 443.563 526.08ZM433.123 549.18C432.723 549.18 432.383 549.1 432.103 548.94C431.863 548.78 431.743 548.48 431.743 548.04C431.743 547.48 431.883 546.82 432.163 546.06C432.483 545.3 432.823 544.54 433.183 543.78C433.583 543.02 433.883 542.4 434.083 541.92C434.363 541.36 434.703 540.64 435.103 539.76C435.543 538.84 435.943 537.98 436.303 537.18C436.703 536.34 436.983 535.76 437.143 535.44C436.583 536.04 435.903 536.8 435.103 537.72C434.343 538.6 433.623 539.46 432.943 540.3C432.263 541.14 431.743 541.8 431.383 542.28C431.263 542.44 431.163 542.52 431.083 542.52C431.003 542.52 430.963 542.42 430.963 542.22C430.963 541.9 431.063 541.6 431.263 541.32C432.023 540.36 432.863 539.28 433.783 538.08C434.743 536.88 435.603 535.78 436.363 534.78C437.123 533.74 437.603 533.06 437.803 532.74C438.243 532.66 438.883 532.54 439.723 532.38C440.603 532.22 441.203 532 441.523 531.72C441.643 531.6 441.763 531.54 441.883 531.54C441.963 531.54 442.003 531.62 442.003 531.78C442.043 531.9 442.003 532.04 441.883 532.2C441.643 532.48 441.223 533.16 440.623 534.24C440.023 535.32 439.383 536.52 438.703 537.84C438.063 539.12 437.463 540.28 436.903 541.32C436.343 542.4 435.863 543.44 435.463 544.44C435.063 545.44 434.863 546.16 434.863 546.6C434.863 547.16 435.143 547.44 435.703 547.44C436.223 547.44 436.883 547.12 437.683 546.48C438.523 545.84 439.363 545.08 440.203 544.2C441.043 543.28 441.783 542.44 442.423 541.68C442.623 541.44 442.863 541.16 443.143 540.84C443.463 540.48 443.663 540.26 443.743 540.18C443.823 540.26 443.863 540.4 443.863 540.6C443.823 540.88 443.723 541.16 443.563 541.44C443.403 541.68 443.243 541.9 443.083 542.1C442.243 543.14 441.323 544.22 440.323 545.34C439.323 546.42 438.223 547.34 437.023 548.1C435.823 548.82 434.523 549.18 433.123 549.18Z" fill="black"/>
<path d="M445.146 549.54C444.626 549.54 444.006 549.44 443.286 549.24C442.566 549.08 442.206 548.64 442.206 547.92C442.206 547.64 442.266 547.32 442.386 546.96C442.506 546.6 442.626 546.28 442.746 546C443.146 544.96 443.566 543.9 444.006 542.82C444.446 541.74 444.906 540.64 445.386 539.52C444.866 540.12 444.366 540.68 443.886 541.2C443.446 541.68 443.126 542.04 442.926 542.28C442.806 542.44 442.706 542.52 442.626 542.52C442.546 542.52 442.506 542.42 442.506 542.22C442.506 541.9 442.606 541.6 442.806 541.32C443.366 540.6 444.006 539.84 444.726 539.04C445.446 538.24 446.146 537.4 446.826 536.52C448.506 533 450.386 529.6 452.466 526.32C454.546 523 456.886 520.06 459.486 517.5C460.286 516.74 461.186 515.96 462.186 515.16C463.186 514.36 464.246 513.68 465.366 513.12C466.526 512.56 467.666 512.28 468.786 512.28C469.386 512.28 469.926 512.44 470.406 512.76C470.926 513.08 471.206 513.58 471.246 514.26V516C471.246 516.16 471.126 516.24 470.886 516.24C470.766 516.24 470.706 516.2 470.706 516.12C470.706 515.48 470.426 515.06 469.866 514.86C469.306 514.62 468.746 514.5 468.186 514.5C465.986 514.5 464.006 515.08 462.246 516.24C460.486 517.36 458.926 518.84 457.566 520.68C456.206 522.48 454.986 524.48 453.906 526.68C452.826 528.84 451.846 530.98 450.966 533.1C450.126 535.18 449.326 537.04 448.566 538.68C448.566 538.68 448.566 538.72 448.566 538.8C448.566 538.88 448.586 538.92 448.626 538.92C448.666 538.92 448.986 538.62 449.586 538.02C450.226 537.38 451.006 536.64 451.926 535.8C452.886 534.96 453.886 534.24 454.926 533.64C455.966 533 456.926 532.68 457.806 532.68C458.246 532.68 458.526 532.84 458.646 533.16C458.766 533.44 458.826 533.76 458.826 534.12V534.66C458.626 536.14 458.106 537.74 457.266 539.46C456.466 541.18 455.426 542.82 454.146 544.38C452.906 545.9 451.506 547.14 449.946 548.1C448.426 549.06 446.826 549.54 445.146 549.54ZM446.106 548.52C446.746 548.52 447.426 548.28 448.146 547.8C448.906 547.28 449.486 546.82 449.886 546.42C450.366 545.98 450.946 545.3 451.626 544.38C452.306 543.42 452.966 542.38 453.606 541.26C454.246 540.14 454.786 539.06 455.226 538.02C455.666 536.98 455.886 536.14 455.886 535.5C455.886 535.3 455.846 535.12 455.766 534.96C455.686 534.8 455.546 534.72 455.346 534.72C454.986 534.72 454.506 534.94 453.906 535.38C453.346 535.82 452.726 536.36 452.046 537C451.406 537.6 450.806 538.2 450.246 538.8C449.726 539.36 449.346 539.78 449.106 540.06C448.666 540.54 448.106 541.24 447.426 542.16C446.746 543.08 446.126 544.02 445.566 544.98C445.046 545.9 444.786 546.68 444.786 547.32C444.786 548.12 445.226 548.52 446.106 548.52Z" fill="black"/>
<path d="M459.099 549.84C458.939 549.84 458.939 549.68 459.099 549.36C459.299 549 459.479 548.6 459.639 548.16C459.839 547.72 460.039 547.24 460.239 546.72C460.639 545.76 461.079 544.68 461.559 543.48C462.039 542.28 462.499 541.12 462.939 540C463.379 538.84 463.759 537.86 464.079 537.06C464.439 536.22 464.679 535.68 464.799 535.44C464.239 536.04 463.559 536.8 462.759 537.72C461.999 538.6 461.279 539.46 460.599 540.3C459.919 541.14 459.399 541.8 459.039 542.28C458.919 542.44 458.819 542.52 458.739 542.52C458.659 542.52 458.619 542.42 458.619 542.22C458.619 541.9 458.719 541.6 458.919 541.32C459.679 540.36 460.519 539.28 461.439 538.08C462.399 536.88 463.259 535.78 464.019 534.78C464.779 533.74 465.259 533.06 465.459 532.74C465.899 532.66 466.539 532.54 467.379 532.38C468.259 532.22 468.859 532 469.179 531.72C469.299 531.6 469.419 531.54 469.539 531.54C469.619 531.54 469.659 531.62 469.659 531.78C469.699 531.9 469.659 532.04 469.539 532.2C469.299 532.44 468.939 532.96 468.459 533.76C468.019 534.56 467.519 535.48 466.959 536.52C466.399 537.56 465.859 538.56 465.339 539.52C465.739 538.92 466.259 538.22 466.899 537.42C467.579 536.58 468.319 535.78 469.119 535.02C469.919 534.22 470.719 533.56 471.519 533.04C472.359 532.52 473.139 532.26 473.859 532.26C474.379 532.26 474.819 532.38 475.179 532.62C475.539 532.82 475.819 533.2 476.019 533.76C476.139 534.04 476.199 534.36 476.199 534.72C476.199 535.4 476.019 536.06 475.659 536.7C475.339 537.3 475.099 537.76 474.939 538.08C474.899 538.2 474.759 538.32 474.519 538.44C474.279 538.52 474.179 538.48 474.219 538.32C474.259 538.12 474.279 537.92 474.279 537.72C474.319 537.52 474.339 537.3 474.339 537.06C474.339 536.38 474.199 535.76 473.919 535.2C473.679 534.64 473.219 534.36 472.539 534.36C471.899 534.36 471.119 534.76 470.199 535.56C469.279 536.36 468.359 537.28 467.439 538.32C466.279 539.68 465.359 540.98 464.679 542.22C463.999 543.42 463.439 544.6 462.999 545.76C462.759 546.4 462.519 547.04 462.279 547.68C462.039 548.28 461.859 548.76 461.739 549.12C461.219 549.16 460.699 549.28 460.179 549.48C459.659 549.72 459.299 549.84 459.099 549.84Z" fill="black"/>
<path d="M483.247 549.18C482.847 549.18 482.507 549.1 482.227 548.94C481.947 548.78 481.807 548.48 481.807 548.04C481.807 547.48 481.947 546.84 482.227 546.12C482.507 545.4 482.827 544.7 483.187 544.02C483.547 543.3 483.867 542.72 484.147 542.28C482.747 543.76 481.287 545.16 479.767 546.48C479.007 547.12 478.167 547.72 477.247 548.28C476.327 548.84 475.347 549.12 474.307 549.12C473.907 549.12 473.627 549 473.467 548.76C473.307 548.48 473.227 548.16 473.227 547.8C473.227 547.6 473.247 547.46 473.287 547.38C473.487 545.82 473.987 544.2 474.787 542.52C475.587 540.84 476.567 539.26 477.727 537.78C478.887 536.3 480.067 535.1 481.267 534.18C482.627 533.14 484.127 532.62 485.767 532.62H492.667C492.867 532.62 492.967 532.7 492.967 532.86C492.967 533.18 492.787 533.34 492.427 533.34C492.027 533.34 491.627 533.6 491.227 534.12C490.827 534.6 490.527 535 490.327 535.32C490.047 535.76 489.607 536.5 489.007 537.54C488.407 538.58 487.787 539.72 487.147 540.96C486.547 542.16 486.027 543.28 485.587 544.32C485.147 545.36 484.927 546.12 484.927 546.6C484.927 547.16 485.207 547.44 485.767 547.44C486.367 547.44 487.047 547.16 487.807 546.6C488.567 546.04 489.327 545.36 490.087 544.56C490.887 543.72 491.607 542.9 492.247 542.1C492.927 541.26 493.467 540.6 493.867 540.12C494.107 540.36 494.087 540.7 493.807 541.14C493.567 541.54 493.347 541.86 493.147 542.1C492.347 543.14 491.427 544.22 490.387 545.34C489.347 546.42 488.207 547.34 486.967 548.1C485.767 548.82 484.527 549.18 483.247 549.18ZM476.767 547.08C477.247 547.08 477.907 546.74 478.747 546.06C479.627 545.34 480.567 544.46 481.567 543.42C482.567 542.34 483.507 541.22 484.387 540.06C485.267 538.86 485.987 537.78 486.547 536.82C487.147 535.82 487.447 535.06 487.447 534.54C487.447 534.1 487.307 533.8 487.027 533.64C486.787 533.48 486.467 533.4 486.067 533.4C485.427 533.4 484.727 533.64 483.967 534.12C483.247 534.56 482.667 535 482.227 535.44C481.747 535.88 481.167 536.58 480.487 537.54C479.847 538.46 479.207 539.48 478.567 540.6C477.927 541.72 477.387 542.8 476.947 543.84C476.507 544.88 476.287 545.72 476.287 546.36C476.287 546.84 476.447 547.08 476.767 547.08Z" fill="black"/>
<path d="M493.084 549.84C492.924 549.84 492.924 549.68 493.084 549.36C493.284 549 493.464 548.6 493.624 548.16C493.824 547.72 494.024 547.24 494.224 546.72C494.624 545.76 495.064 544.68 495.544 543.48C496.024 542.28 496.484 541.12 496.924 540C497.364 538.84 497.744 537.86 498.064 537.06C498.424 536.22 498.664 535.68 498.784 535.44C498.224 536.04 497.544 536.8 496.744 537.72C495.984 538.6 495.264 539.46 494.584 540.3C493.904 541.14 493.384 541.8 493.024 542.28C492.904 542.44 492.804 542.52 492.724 542.52C492.644 542.52 492.604 542.42 492.604 542.22C492.604 541.9 492.704 541.6 492.904 541.32C493.664 540.36 494.504 539.28 495.424 538.08C496.384 536.88 497.244 535.78 498.004 534.78C498.764 533.74 499.244 533.06 499.444 532.74C499.884 532.66 500.524 532.54 501.364 532.38C502.244 532.22 502.844 532 503.164 531.72C503.284 531.6 503.404 531.54 503.524 531.54C503.604 531.54 503.644 531.62 503.644 531.78C503.684 531.9 503.644 532.04 503.524 532.2C503.284 532.44 502.924 532.96 502.444 533.76C502.004 534.56 501.504 535.48 500.944 536.52C500.384 537.56 499.844 538.56 499.324 539.52C499.724 538.92 500.244 538.22 500.884 537.42C501.564 536.58 502.304 535.78 503.104 535.02C503.904 534.22 504.704 533.56 505.504 533.04C506.344 532.52 507.124 532.26 507.844 532.26C508.364 532.26 508.804 532.38 509.164 532.62C509.524 532.82 509.804 533.2 510.004 533.76C510.124 534.04 510.184 534.36 510.184 534.72C510.184 535.4 510.004 536.06 509.644 536.7C509.324 537.3 509.084 537.76 508.924 538.08C508.884 538.2 508.744 538.32 508.504 538.44C508.264 538.52 508.164 538.48 508.204 538.32C508.244 538.12 508.264 537.92 508.264 537.72C508.304 537.52 508.324 537.3 508.324 537.06C508.324 536.38 508.184 535.76 507.904 535.2C507.664 534.64 507.204 534.36 506.524 534.36C505.884 534.36 505.104 534.76 504.184 535.56C503.264 536.36 502.344 537.28 501.424 538.32C500.264 539.68 499.344 540.98 498.664 542.22C497.984 543.42 497.424 544.6 496.984 545.76C496.744 546.4 496.504 547.04 496.264 547.68C496.024 548.28 495.844 548.76 495.724 549.12C495.204 549.16 494.684 549.28 494.164 549.48C493.644 549.72 493.284 549.84 493.084 549.84Z" fill="black"/>
<path d="M502.891 570C501.371 570 499.911 569.64 498.511 568.92C497.071 568.24 496.011 567.18 495.331 565.74C495.091 565.22 494.931 564.66 494.851 564.06C494.771 563.5 494.731 562.94 494.731 562.38V561.72C494.731 561.4 494.771 561.1 494.851 560.82C494.931 560.58 495.131 560.46 495.451 560.46C495.531 560.46 495.571 560.5 495.571 560.58C495.571 560.82 495.551 561.06 495.511 561.3C495.471 561.54 495.451 561.8 495.451 562.08C495.451 563.92 496.051 565.32 497.251 566.28C498.411 567.24 499.871 567.72 501.631 567.72C502.351 567.72 503.091 567.64 503.851 567.48C504.611 567.32 505.331 567.1 506.011 566.82C508.531 565.74 510.711 564.2 512.551 562.2C514.431 560.24 516.071 558.02 517.471 555.54C518.871 553.06 520.131 550.54 521.251 547.98C521.891 546.46 522.451 544.98 522.931 543.54C523.451 542.1 523.911 540.8 524.311 539.64C523.911 540.2 523.391 540.88 522.751 541.68C522.111 542.48 521.471 543.26 520.831 544.02C520.191 544.74 519.631 545.32 519.151 545.76C518.151 546.72 517.071 547.54 515.911 548.22C514.791 548.86 513.631 549.18 512.431 549.18C512.031 549.18 511.691 549.1 511.411 548.94C511.131 548.78 510.991 548.48 510.991 548.04C510.991 547.48 511.131 546.82 511.411 546.06C511.731 545.3 512.071 544.54 512.431 543.78C512.791 543.02 513.091 542.4 513.331 541.92C513.811 541 514.271 540.08 514.711 539.16C515.151 538.24 515.531 537.46 515.851 536.82C516.171 536.22 516.331 535.82 516.331 535.62C516.331 535.3 516.091 535.3 515.611 535.62C515.171 535.94 514.751 536.26 514.351 536.58C513.471 537.42 512.551 538.42 511.591 539.58C510.631 540.7 509.891 541.6 509.371 542.28C509.251 542.44 509.151 542.52 509.071 542.52C508.991 542.52 508.951 542.42 508.951 542.22C508.951 541.9 509.051 541.6 509.251 541.32C509.811 540.52 510.471 539.64 511.231 538.68C511.991 537.72 512.771 536.8 513.571 535.92C514.331 535.12 515.111 534.34 515.911 533.58C516.711 532.82 517.731 532.44 518.971 532.44C519.811 532.44 520.231 532.76 520.231 533.4C520.231 533.96 519.991 534.6 519.511 535.32C519.231 535.76 518.791 536.5 518.191 537.54C517.591 538.58 516.971 539.72 516.331 540.96C515.731 542.16 515.211 543.28 514.771 544.32C514.331 545.36 514.111 546.12 514.111 546.6C514.111 547.16 514.391 547.44 514.951 547.44C515.391 547.44 515.931 547.22 516.571 546.78C517.211 546.3 517.871 545.74 518.551 545.1C519.711 543.98 520.771 542.74 521.731 541.38C522.731 540.02 523.591 538.72 524.311 537.48C524.431 537.28 524.631 536.92 524.911 536.4C525.231 535.88 525.551 535.38 525.871 534.9C526.231 534.42 526.511 534.14 526.711 534.06C526.911 533.98 527.311 533.76 527.911 533.4C528.511 533.04 529.111 532.8 529.711 532.68C530.271 532.56 530.691 532.5 530.971 532.5C531.411 532.5 531.631 532.62 531.631 532.86C531.631 533.18 531.451 533.34 531.091 533.34C530.651 533.34 530.251 533.46 529.891 533.7C529.531 533.9 529.251 534.16 529.051 534.48C528.691 535 528.171 535.94 527.491 537.3C526.851 538.66 526.131 540.24 525.331 542.04C524.571 543.8 523.811 545.6 523.051 547.44C522.291 549.24 521.591 550.9 520.951 552.42C519.991 554.7 518.891 556.92 517.651 559.08C516.411 561.28 514.951 563.24 513.271 564.96C511.631 566.72 509.671 568.1 507.391 569.1C506.031 569.7 504.531 570 502.891 570Z" fill="black"/>
<defs>
<radialGradient id="paint0_radial_3_2" cx="0" cy="0" r="1" gradientUnits="userSpaceOnUse" gradientTransform="translate(36.0387 96.772) rotate(-0.10964) scale(449.857 230.712)">
<stop stop-color="#23147D"/>
<stop offset="1" stop-color="#3F035C"/>
</radialGradient>
<radialGradient id="paint1_radial_3_2" cx="0" cy="0" r="1" gradientUnits="userSpaceOnUse" gradientTransform="translate(9.50004 303) rotate(-0.190035) scale(502.503 446.682)">
<stop stop-color="#23147D"/>
<stop offset="1" stop-color="#3F035C"/>
</radialGradient>
</defs>
</svg>
